M48
;DRILL file {KiCad (5.0.0)} date 09/08/18 20:18:53
;FORMAT={-:-/ absolute / inch / decimal}
FMAT,2
INCH,TZ
T1C0.0118
T2C0.0236
T3C0.0394
T4C0.0409
T5C0.0579
T6C0.0669
T7C0.0256
T8C0.0689
T9C0.1200
T10C0.1570
%
G90
G05
M72
T1
X1.39Y-5.12
X1.405Y-3.51
X1.405Y-3.69
X1.413Y-3.352
X1.449Y-4.5186
X1.46Y-3.84
X1.461Y-3.92
X1.487Y-4.225
X1.511Y-3.071
X1.534Y-3.798
X1.539Y-5.176
X1.544Y-3.3855
X1.581Y-3.796
X1.5955Y-3.654
X1.6012Y-4.7096
X1.622Y-3.619
X1.6475Y-3.9905
X1.661Y-3.565
X1.6905Y-3.14
X1.7085Y-3.615
X1.775Y-4.4
X1.9096Y-2.8854
X1.911Y-3.418
X1.9236Y-4.6452
X2.01Y-3.715
X2.075Y-4.508
X2.082Y-2.604
X2.1079Y-3.2639
X2.108Y-3.916
X2.12Y-2.975
X2.1224Y-4.6472
X2.147Y-3.3771
X2.165Y-4.72
X2.1785Y-4.1815
X2.179Y-4.146
X2.1928Y-3.8364
X2.2518Y-2.5224
X2.2825Y-4.85
X2.304Y-4.145
X2.3125Y-4.418
X2.3268Y-5.1188
X2.3475Y-4.9425
X2.35Y-3.975
X2.3506Y-2.4236
X2.368Y-3.37
X2.385Y-3.617
X2.3875Y-4.5455
X2.415Y-4.375
X2.452Y-4.863
X2.475Y-3.715
X2.4848Y-3.6212
X2.5077Y-4.6236
X2.5704Y-2.436
X2.5984Y-2.8172
X2.599Y-4.027
X2.603Y-5.0748
X2.642Y-4.754
X2.7004Y-2.612
X2.767Y-4.3615
X2.769Y-3.6395
X2.774Y-2.971
X2.8181Y-5.2878
X2.8375Y-3.058
X2.863Y-2.956
X2.9308Y-5.0904
X2.986Y-4.5025
X3.0556Y-4.6612
X3.1395Y-5.0355
X3.181Y-3.29
X3.1938Y-4.2453
X3.22Y-4.485
X3.22Y-4.665
X3.284Y-5.099
X3.325Y-4.4586
X3.3427Y-3.8652
X3.3455Y-2.8295
X3.371Y-4.6665
X3.374Y-3.236
X3.3855Y-3.1185
X3.3898Y-4.8277
X3.45Y-2.567
X3.452Y-5.195
X3.5125Y-4.3525
X3.5303Y-5.1416
X3.564Y-3.608
X3.5645Y-5.0452
X3.572Y-5.315
X3.664Y-4.792
X3.7886Y-4.4672
X3.805Y-4.072
X3.821Y-5.0972
X3.8265Y-4.898
X3.8266Y-5.283
X3.83Y-5.18
X3.845Y-4.764
X3.854Y-4.729
X3.8658Y-4.8214
X3.8798Y-5.2592
X3.898Y-5.2125
X3.907Y-3.13
X3.9246Y-3.7099
X3.9368Y-4.6532
X4.001Y-4.653
X4.0298Y-5.2988
X4.075Y-4.525
X4.075Y-4.665
X4.1315Y-4.897
X4.1333Y-4.9534
X4.136Y-5.0015
X4.1685Y-5.1162
X4.176Y-2.571
X4.1868Y-5.0389
X4.2009Y-5.3
X4.2037Y-5.1257
X4.2075Y-3.064
X4.243Y-4.8975
X4.2476Y-5.3571
X4.248Y-4.6354
X4.2491Y-5.0772
X4.2868Y-5.1223
X4.2969Y-5.3047
X4.317Y-5.009
X4.3191Y-5.0896
X4.361Y-4.89
X4.3671Y-5.2468
X4.3928Y-5.0921
X4.396Y-4.938
X4.4008Y-3.3212
X4.414Y-4.816
X4.4152Y-5.0171
X4.4171Y-5.0615
X4.422Y-4.9734
X4.4501Y-4.5558
X4.466Y-5.2844
X4.513Y-4.4957
X4.53Y-3.7118
X4.557Y-4.529
X4.563Y-4.058
X4.5785Y-2.8785
X4.5849Y-5.0924
X4.603Y-5.2446
X4.6083Y-4.9412
X4.6223Y-4.5927
X4.682Y-4.3582
X4.7465Y-4.5505
X4.808Y-4.144
X4.8342Y-3.8267
X4.8471Y-5.2911
X4.88Y-5.063
X4.889Y-4.625
X4.9056Y-3.2736
X4.909Y-4.555
X4.91Y-4.472
X4.9399Y-3.1122
X4.9448Y-2.9586
X4.9542Y-5.1822
X4.955Y-2.578
X4.984Y-5.074
X5.09Y-2.9645
X5.09Y-3.155
X5.2249Y-4.3109
X5.2959Y-3.7012
X5.3032Y-4.0694
X5.3525Y-2.89
X5.3934Y-4.7376
X5.4806Y-5.3188
X5.5245Y-3.17
X5.5875Y-2.972
X5.6366Y-2.8214
X5.641Y-4.434
X5.681Y-2.582
X5.7292Y-4.5575
X5.755Y-5.3246
X5.7754Y-2.9476
X5.8775Y-4.5396
X5.8815Y-5.004
X5.9568Y-3.7144
X5.958Y-5.0805
X5.9592Y-4.3354
X5.987Y-5.231
X6.0587Y-4.0564
X6.149Y-2.8415
X6.171Y-4.504
X6.1965Y-2.636
X6.229Y-3.169
X6.294Y-4.807
X6.3494Y-3.0528
X6.3975Y-2.9505
X6.451Y-2.568
X6.489Y-4.777
X6.5825Y-3.1725
X6.672Y-2.988
X6.7043Y-4.3026
X6.7493Y-3.7226
X6.7931Y-4.0472
X6.8255Y-4.9137
X6.834Y-4.526
X6.881Y-5.209
X7.095Y-4.092
X7.11Y-2.9725
X7.1315Y-5.0783
X7.1502Y-3.3476
X7.17Y-2.571
X7.268Y-2.969
X7.268Y-4.5936
X7.286Y-3.097
X7.289Y-5.204
X7.3196Y-4.8458
X7.3915Y-3.0775
X7.4664Y-3.7026
X7.4783Y-4.5169
X7.5488Y-4.0642
X7.6334Y-2.8625
X7.645Y-3.0775
X7.6795Y-3.6925
X7.7365Y-4.5335
X7.7454Y-3.2828
X7.783Y-5.221
X7.8815Y-3.0765
X7.8923Y-4.3415
X7.9495Y-2.9575
X8.0407Y-5.0494
X8.085Y-4.032
X8.0875Y-3.175
X8.0925Y-2.9175
X8.1392Y-3.2636
X8.1615Y-3.7042
X8.173Y-5.2367
X8.3142Y-4.075
X8.34Y-2.8675
X8.3445Y-2.796
X8.434Y-3.24
X8.4725Y-5.32
X8.5708Y-3.6006
X8.574Y-4.925
X8.597Y-4.493
X8.6032Y-2.6677
X8.626Y-3.234
X8.7Y-2.597
X8.74Y-4.821
X8.8058Y-3.1186
X8.8474Y-4.6349
X8.862Y-3.67
X8.944Y-5.213
X9.026Y-4.367
X9.062Y-4.061
X9.075Y-3.8098
X9.1112Y-3.256
X9.1112Y-3.504
X9.1369Y-2.8551
X9.1476Y-3.1385
X9.175Y-3.46
X9.175Y-3.7222
X9.2266Y-4.053
X9.2608Y-3.5034
X9.2612Y-3.2536
X9.33Y-3.785
X9.3846Y-4.0511
X9.4112Y-5.2098
X9.417Y-2.57
X9.441Y-4.0595
X9.445Y-4.8161
X9.4515Y-4.5955
X9.4675Y-3.085
X9.5082Y-3.2386
X9.52Y-4.765
X9.5418Y-4.5882
X9.59Y-2.9425
X9.5984Y-3.0382
X9.6704Y-3.179
X9.6992Y-5.2102
X9.7195Y-4.5436
X9.774Y-4.735
X9.8675Y-3.6645
X9.883Y-3.306
X9.9384Y-3.7554
X10.095Y-3.67
X10.0997Y-4.4085
X10.188Y-2.545
X10.1945Y-5.341
X10.2Y-3.14
X10.202Y-2.4075
X10.2023Y-4.4892
X10.2355Y-5.1285
X10.277Y-4.605
X10.2865Y-4.097
T3
X8.9725Y-3.184
X8.9725Y-3.491
X10.2875Y-4.974
X10.2875Y-5.281
X5.3365Y-3.075
X5.6435Y-3.075
X8.3015Y-4.6725
X8.6085Y-4.6725
X6.162Y-4.6525
X6.162Y-4.9595
X1.485Y-4.6646
X1.485Y-4.9717
X9.8295Y-4.617
X10.1365Y-4.617
X2.434Y-3.147
X2.534Y-3.147
X2.634Y-3.147
X2.734Y-3.147
X6.27Y-4.0165
X6.27Y-4.3235
X5.032Y-2.4735
X5.032Y-2.7805
X2.965Y-3.1715
X2.965Y-3.4785
X8.33Y-3.3265
X8.33Y-3.6335
X5.336Y-3.3265
X5.336Y-3.6335
X4.745Y-4.0165
X4.745Y-4.3235
X6.905Y-3.9715
X6.905Y-4.2785
X8.78Y-4.9735
X8.78Y-5.2805
X3.065Y-4.9315
X3.065Y-5.2385
X9.26Y-4.1865
X9.26Y-4.4935
X7.0077Y-4.0153
X7.0077Y-4.3223
X7.765Y-4.0165
X7.765Y-4.3235
X6.531Y-2.4655
X6.531Y-2.7725
X6.73Y-3.199
X6.73Y-3.506
X2.815Y-2.4665
X2.815Y-2.7735
X8.895Y-2.5715
X8.895Y-2.8785
X1.435Y-4.0915
X1.435Y-4.3985
X6.155Y-3.9715
X6.155Y-4.2785
X7.03Y-4.979
X7.03Y-5.286
X10.025Y-3.199
X10.025Y-3.506
X5.505Y-4.924
X5.505Y-5.231
X2.9565Y-3.08
X3.2635Y-3.08
X3.5015Y-4.66
X3.8085Y-4.66
X7.395Y-2.5715
X7.395Y-2.8785
X5.471Y-4.4975
X5.471Y-4.8045
X3.531Y-2.4665
X3.531Y-2.7735
X7.281Y-2.4645
X7.281Y-2.7715
X4.485Y-3.1865
X4.485Y-3.4935
X9.8265Y-3.075
X10.1335Y-3.075
X7.583Y-3.3985
X7.583Y-3.7055
X10.1Y-3.9465
X10.1Y-4.2535
X3.91Y-3.9715
X3.91Y-4.2785
X7.955Y-4.984
X7.955Y-5.291
X4.395Y-2.5715
X4.395Y-2.8785
X8.2275Y-3.1965
X8.2275Y-3.5035
X3.965Y-4.9925
X3.965Y-5.2995
X5.895Y-2.5715
X5.895Y-2.8785
X9.039Y-4.6725
X9.346Y-4.6725
X2.5865Y-4.665
X2.8935Y-4.665
X9.532Y-2.4645
X9.532Y-2.7715
X1.39Y-2.7665
X1.39Y-3.0735
X8.783Y-2.4655
X8.783Y-2.7725
X7.6315Y-3.185
X7.9385Y-3.185
X6.082Y-3.3265
X6.082Y-3.6335
X8.41Y-3.9715
X8.41Y-4.2785
X1.57Y-4.0565
X1.57Y-4.3635
X2.895Y-2.5715
X2.895Y-2.8785
X9.155Y-3.9165
X9.155Y-4.2235
X3.22Y-4.9665
X3.22Y-5.2735
X9.39Y-3.2065
X9.39Y-3.5135
X6.5015Y-4.6575
X6.8085Y-4.6575
X8.515Y-4.0165
X8.515Y-4.3235
X4.282Y-2.4725
X4.282Y-2.7795
X5.965Y-3.1965
X5.965Y-3.5035
X5.781Y-2.4655
X5.781Y-2.7725
X3.4515Y-3.824
X3.7585Y-3.824
X3.836Y-3.3285
X3.836Y-3.6355
X6.8325Y-3.3265
X6.8325Y-3.6335
X5.405Y-3.9715
X5.405Y-4.2785
X2.125Y-4.9315
X2.125Y-5.2385
X6.8165Y-3.08
X7.1235Y-3.08
X4.655Y-3.9715
X4.655Y-4.2785
X2.139Y-2.5015
X2.139Y-2.8085
X10.23Y-3.9415
X10.23Y-4.2485
X7.444Y-4.665
X7.751Y-4.665
X5.52Y-4.0165
X5.52Y-4.3235
X8.032Y-2.4645
X8.032Y-2.7715
X10.2825Y-2.464
X10.2825Y-2.771
X2.6265Y-3.83
X2.9335Y-3.83
X2.245Y-3.2615
X2.245Y-3.5685
X3.08Y-3.3325
X3.08Y-3.6395
X7.48Y-3.1965
X7.48Y-3.5035
X9.535Y-4.984
X9.535Y-5.291
X3.365Y-4.9365
X3.365Y-5.2435
X2.519Y-3.97
X2.519Y-4.277
X4.5515Y-3.075
X4.8585Y-3.075
X2.03Y-2.4655
X2.03Y-2.7725
X5.044Y-4.577
X5.044Y-4.677
X5.144Y-4.577
X5.144Y-4.677
X5.244Y-4.577
X5.244Y-4.677
X5.23Y-3.1915
X5.23Y-3.4985
X3.74Y-3.1815
X3.74Y-3.4885
X10.165Y-3.3165
X10.165Y-3.6235
X8.3065Y-3.075
X8.6135Y-3.075
X4.584Y-3.3285
X4.584Y-3.6355
X7.655Y-3.9715
X7.655Y-4.2785
T4
X6.632Y-5.2001
X6.732Y-5.2001
X6.9134Y-2.9503
X7.0134Y-2.9503
X7.6634Y-2.9503
X7.7634Y-2.9503
X7.1008Y-3.7003
X7.2008Y-3.7003
X8.0381Y-4.4502
X8.1381Y-4.4502
X9.1633Y-5.2001
X9.2633Y-5.2001
X1.6634Y-2.9503
X1.7634Y-2.9503
X5.4134Y-2.9503
X5.5134Y-2.9503
X9.6321Y-3.7001
X9.7321Y-3.7001
X1.8508Y-4.4502
X1.9508Y-4.4502
X5.6008Y-3.7003
X5.7008Y-3.7003
X6.1634Y-2.9503
X6.2634Y-2.9503
X2.4134Y-2.9503
X2.5134Y-2.9503
X2.7881Y-4.4502
X2.8881Y-4.4502
X4.2881Y-4.4502
X4.3881Y-4.4502
X8.6008Y-3.7003
X8.7008Y-3.7003
X5.1314Y-4.7998
X5.2314Y-4.7998
X9.9133Y-5.2001
X10.0133Y-5.2001
X4.1008Y-3.7003
X4.2008Y-3.7003
X3.9134Y-2.9503
X4.0134Y-2.9503
X3.1634Y-2.9503
X3.2634Y-2.9503
X7.2881Y-4.4502
X7.3881Y-4.4502
X6.5381Y-4.4502
X6.6381Y-4.4502
X6.3508Y-3.7003
X6.4508Y-3.7003
X8.4133Y-5.2001
X8.5133Y-5.2001
X3.3508Y-3.7003
X3.4508Y-3.7003
X8.4134Y-2.9503
X8.5134Y-2.9503
X4.6634Y-2.9503
X4.7634Y-2.9503
X5.7881Y-4.4502
X5.8881Y-4.4502
X5.0381Y-4.4502
X5.1381Y-4.4502
X3.632Y-5.2001
X3.732Y-5.2001
X1.7571Y-3.7003
X1.8571Y-3.7003
X2.6008Y-3.7003
X2.7008Y-3.7003
X4.8508Y-3.7003
X4.9508Y-3.7003
X3.5381Y-4.4502
X3.6381Y-4.4502
X2.6946Y-5.2001
X2.7946Y-5.2001
X8.7881Y-4.4502
X8.8881Y-4.4502
X7.5695Y-5.2001
X7.6695Y-5.2001
X9.9134Y-2.9503
X10.0134Y-2.9503
X9.1634Y-2.9503
X9.2634Y-2.9503
X7.8508Y-3.7003
X7.9508Y-3.7003
X9.7258Y-4.4501
X9.8258Y-4.4501
X1.7571Y-5.2001
X1.8571Y-5.2001
T5
X7.4695Y-4.9001
X7.5211Y-4.8426
X7.7179Y-4.8229
X7.7195Y-4.8001
X9.8134Y-2.6503
X9.865Y-2.5928
X10.0618Y-2.5731
X10.0634Y-2.5503
X9.0634Y-2.6503
X9.115Y-2.5928
X9.3118Y-2.5731
X9.3134Y-2.5503
X7.7508Y-3.4003
X7.8024Y-3.3428
X7.9992Y-3.3231
X8.0008Y-3.3003
X9.6258Y-4.1501
X9.6774Y-4.0926
X9.8742Y-4.0729
X9.8758Y-4.0501
X1.6571Y-4.9001
X1.7087Y-4.8426
X1.9055Y-4.8229
X1.9071Y-4.8001
X6.532Y-4.9001
X6.5836Y-4.8426
X6.7804Y-4.8229
X6.782Y-4.8001
X6.8134Y-2.6503
X6.865Y-2.5928
X7.0618Y-2.5731
X7.0634Y-2.5503
X7.5634Y-2.6503
X7.615Y-2.5928
X7.8118Y-2.5731
X7.8134Y-2.5503
X7.0008Y-3.4003
X7.0524Y-3.3428
X7.2492Y-3.3231
X7.2508Y-3.3003
X7.9381Y-4.1502
X7.9897Y-4.0927
X8.1865Y-4.0731
X8.1881Y-4.0502
X9.0633Y-4.9001
X9.1149Y-4.8426
X9.3117Y-4.8229
X9.3133Y-4.8001
X1.5634Y-2.6503
X1.615Y-2.5928
X1.8118Y-2.5731
X1.8134Y-2.5503
X5.3134Y-2.6503
X5.365Y-2.5928
X5.5618Y-2.5731
X5.5634Y-2.5503
X9.5321Y-3.4001
X9.5837Y-3.3426
X9.7805Y-3.3229
X9.7821Y-3.3001
X1.7508Y-4.1502
X1.8024Y-4.0927
X1.9992Y-4.073
X2.0008Y-4.0502
X5.5008Y-3.4003
X5.5524Y-3.3428
X5.7492Y-3.3231
X5.7508Y-3.3003
X6.0634Y-2.6503
X6.115Y-2.5928
X6.3118Y-2.5731
X6.3134Y-2.5503
X2.3134Y-2.6503
X2.365Y-2.5928
X2.5618Y-2.5731
X2.5634Y-2.5503
X2.6881Y-4.1502
X2.7397Y-4.0927
X2.9365Y-4.0731
X2.9381Y-4.0502
X4.1881Y-4.1502
X4.2397Y-4.0927
X4.4365Y-4.0731
X4.4381Y-4.0502
X8.5008Y-3.4003
X8.5524Y-3.3428
X8.7492Y-3.3231
X8.7508Y-3.3003
X5.0814Y-5.1998
X5.083Y-5.177
X5.2798Y-5.1573
X5.3314Y-5.0998
X9.8133Y-4.9001
X9.8649Y-4.8426
X10.0617Y-4.8229
X10.0633Y-4.8001
X4.0008Y-3.4003
X4.0524Y-3.3428
X4.2492Y-3.3231
X4.2508Y-3.3003
X3.8134Y-2.6503
X3.865Y-2.5928
X4.0618Y-2.5731
X4.0634Y-2.5503
X3.0634Y-2.6503
X3.115Y-2.5928
X3.3118Y-2.5731
X3.3134Y-2.5503
X7.1881Y-4.1502
X7.2397Y-4.0927
X7.4365Y-4.0731
X7.4381Y-4.0502
X6.4381Y-4.1502
X6.4897Y-4.0927
X6.6865Y-4.0731
X6.6881Y-4.0502
X6.2508Y-3.4003
X6.3024Y-3.3428
X6.4992Y-3.3231
X6.5008Y-3.3003
X8.3133Y-4.9001
X8.3649Y-4.8426
X8.5617Y-4.8229
X8.5633Y-4.8001
X3.2508Y-3.4003
X3.3024Y-3.3428
X3.4992Y-3.3231
X3.5008Y-3.3003
X8.3134Y-2.6503
X8.365Y-2.5928
X8.5618Y-2.5731
X8.5634Y-2.5503
X4.5634Y-2.6503
X4.615Y-2.5928
X4.8118Y-2.5731
X4.8134Y-2.5503
X5.6881Y-4.1502
X5.7397Y-4.0927
X5.9365Y-4.0731
X5.9381Y-4.0502
X4.9381Y-4.1502
X4.9897Y-4.0927
X5.1865Y-4.0731
X5.1881Y-4.0502
X3.532Y-4.9001
X3.5836Y-4.8426
X3.7804Y-4.8229
X3.782Y-4.8001
X1.6571Y-3.4003
X1.7087Y-3.3428
X1.9055Y-3.3231
X1.9071Y-3.3003
X2.5008Y-3.4003
X2.5524Y-3.3428
X2.7492Y-3.3231
X2.7508Y-3.3003
X4.7508Y-3.4003
X4.8024Y-3.3428
X4.9992Y-3.3231
X5.0008Y-3.3003
X3.4381Y-4.1502
X3.4897Y-4.0927
X3.6865Y-4.0731
X3.6881Y-4.0502
X2.5946Y-4.9001
X2.6462Y-4.8426
X2.843Y-4.8229
X2.8446Y-4.8001
X8.6881Y-4.1502
X8.7397Y-4.0927
X8.9365Y-4.0731
X8.9381Y-4.0502
T7
X1.4436Y-3.4887
X1.4436Y-3.7163
T8
X9.0133Y-5.0001
X9.4133Y-5.0001
X1.5134Y-2.7503
X1.9134Y-2.7503
X5.2634Y-2.7503
X5.6634Y-2.7503
X9.4821Y-3.5001
X9.8821Y-3.5001
X1.7008Y-4.2502
X2.1008Y-4.2502
X5.4508Y-3.5003
X5.8508Y-3.5003
X6.0134Y-2.7503
X6.4134Y-2.7503
X2.2634Y-2.7503
X2.6634Y-2.7503
X2.6381Y-4.2502
X3.0381Y-4.2502
X4.1381Y-4.2502
X4.5381Y-4.2502
X8.4508Y-3.5003
X8.8508Y-3.5003
X4.9814Y-4.9998
X5.3814Y-4.9998
X9.7633Y-5.0001
X10.1633Y-5.0001
X3.9508Y-3.5003
X4.3508Y-3.5003
X3.7634Y-2.7503
X4.1634Y-2.7503
X3.0134Y-2.7503
X3.4134Y-2.7503
X7.1381Y-4.2502
X7.5381Y-4.2502
X6.3881Y-4.2502
X6.7881Y-4.2502
X6.2008Y-3.5003
X6.6008Y-3.5003
X8.2633Y-5.0001
X8.6633Y-5.0001
X3.2008Y-3.5003
X3.6008Y-3.5003
X8.2634Y-2.7503
X8.6634Y-2.7503
X4.5134Y-2.7503
X4.9134Y-2.7503
X5.6381Y-4.2502
X6.0381Y-4.2502
X4.8881Y-4.2502
X5.2881Y-4.2502
X3.482Y-5.0001
X3.882Y-5.0001
X2.0071Y-3.5003
X2.4508Y-3.5003
X2.8508Y-3.5003
X4.7008Y-3.5003
X5.1008Y-3.5003
X3.3881Y-4.2502
X3.7881Y-4.2502
X2.5446Y-5.0001
X2.9446Y-5.0001
X8.6381Y-4.2502
X9.0381Y-4.2502
X7.4195Y-5.0001
X7.8195Y-5.0001
X9.7634Y-2.7503
X10.1634Y-2.7503
X9.0134Y-2.7503
X9.4134Y-2.7503
X7.7008Y-3.5003
X8.1008Y-3.5003
X9.5758Y-4.2501
X9.9758Y-4.2501
X1.6071Y-5.0001
X2.0071Y-5.0001
X6.482Y-5.0001
X6.882Y-5.0001
X6.7634Y-2.7503
X7.1634Y-2.7503
X7.5134Y-2.7503
X7.9134Y-2.7503
X6.9508Y-3.5003
X7.3508Y-3.5003
X7.8881Y-4.2502
X8.2881Y-4.2502
T9
X4.7114Y-5.2748
X5.6514Y-5.2748
T10
X7.6195Y-5.0001
X9.9634Y-2.7503
X9.2134Y-2.7503
X7.9008Y-3.5003
X9.7758Y-4.2501
X1.8071Y-5.0001
X6.682Y-5.0001
X6.9634Y-2.7503
X7.7134Y-2.7503
X7.1508Y-3.5003
X8.0881Y-4.2502
X9.2133Y-5.0001
X1.7134Y-2.7503
X5.4634Y-2.7503
X9.6821Y-3.5001
X1.9008Y-4.2502
X5.6508Y-3.5003
X6.2134Y-2.7503
X2.4634Y-2.7503
X2.8381Y-4.2502
X4.3381Y-4.2502
X8.6508Y-3.5003
X4.7114Y-4.6748
X5.1814Y-4.9998
X5.6514Y-4.6748
X9.9633Y-5.0001
X4.1508Y-3.5003
X3.9634Y-2.7503
X3.2134Y-2.7503
X7.3381Y-4.2502
X6.5881Y-4.2502
X6.4008Y-3.5003
X8.4633Y-5.0001
X3.4008Y-3.5003
X8.4634Y-2.7503
X4.7134Y-2.7503
X5.8381Y-4.2502
X5.0881Y-4.2502
X3.682Y-5.0001
X1.8071Y-3.5003
X2.6508Y-3.5003
X4.9008Y-3.5003
X3.5881Y-4.2502
X2.7446Y-5.0001
X8.8381Y-4.2502
T2
X1.2881Y-3.4324G85X1.3117Y-3.4324
G05
X1.2881Y-3.7726G85X1.3117Y-3.7726
G05
X1.4428Y-3.4324G85X1.4861Y-3.4324
G05
X1.4428Y-3.7726G85X1.4861Y-3.7726
G05
T6
X2.705Y-2.4797G85X2.705Y-2.4403
G05
X2.445Y-2.4797G85X2.445Y-2.4403
G05
T0
M30
