G04 #@! TF.GenerationSoftware,KiCad,Pcbnew,(5.0.1-dev-4-g3dcf04fdb)*
G04 #@! TF.CreationDate,2018-07-22T01:27:49+03:00*
G04 #@! TF.ProjectId,cpm43,63706D34332E6B696361645F70636200,rev?*
G04 #@! TF.SameCoordinates,Original*
G04 #@! TF.FileFunction,Paste,Bot*
G04 #@! TF.FilePolarity,Positive*
%FSLAX46Y46*%
G04 Gerber Fmt 4.6, Leading zero omitted, Abs format (unit mm)*
G04 Created by KiCad (PCBNEW (5.0.1-dev-4-g3dcf04fdb)) date 07/22/18 01:27:49*
%MOMM*%
%LPD*%
G01*
G04 APERTURE LIST*
%ADD10C,0.100000*%
%ADD11R,1.400000X1.800000*%
%ADD12R,2.000000X1.500000*%
%ADD13R,2.000000X3.800000*%
%ADD14R,1.250000X1.500000*%
%ADD15R,1.500000X1.250000*%
%ADD16R,1.200000X1.600000*%
%ADD17R,1.800000X1.400000*%
%ADD18R,1.200000X1.500000*%
%ADD19R,1.500000X1.200000*%
%ADD20R,1.300000X1.540000*%
%ADD21R,1.300000X1.550000*%
%ADD22R,1.524000X0.406400*%
%ADD23R,0.406400X1.524000*%
%ADD24R,1.000000X1.200000*%
%ADD25R,0.600000X1.200000*%
%ADD26R,1.800000X2.100000*%
%ADD27R,2.450000X0.300000*%
%ADD28R,2.450000X0.600000*%
%ADD29R,2.650000X2.030000*%
%ADD30R,1.500000X1.300000*%
%ADD31R,1.300000X1.500000*%
G04 APERTURE END LIST*
D10*
X33421320Y-97226120D02*
X33655700Y-97227240D01*
X33655000Y-98132900D02*
X33655000Y-97225600D01*
X34848800Y-136804400D02*
X34889440Y-136804400D01*
X34889440Y-136804400D02*
X34856420Y-136804400D01*
X117729000Y-136804400D02*
X34874200Y-136804400D01*
X145516600Y-135229600D02*
X145516600Y-136804400D01*
X141605161Y-135254672D02*
X141605161Y-136804400D01*
X121640600Y-135255000D02*
X121640600Y-136804400D01*
X117729000Y-135280400D02*
X117729000Y-136804400D01*
X141605000Y-136804400D02*
X121640600Y-136804400D01*
X145516600Y-136804400D02*
X261467600Y-136804400D01*
X117729000Y-135280400D02*
G75*
G02X121640439Y-135255328I1955639J25072D01*
G01*
X141605161Y-135254672D02*
G75*
G02X145516600Y-135229600I1955639J25072D01*
G01*
X33533080Y-85742780D02*
X33413700Y-85740240D01*
X33533080Y-85742780D02*
X33642300Y-85745320D01*
X33642300Y-85745320D02*
X33655000Y-85732620D01*
X33655000Y-84838540D02*
X33655000Y-85732620D01*
X31612840Y-87541100D02*
X31612840Y-95415100D01*
X33426051Y-97225771D02*
G75*
G02X31612840Y-95412560I0J1813211D01*
G01*
X31612840Y-87553451D02*
G75*
G02X33426051Y-85740240I1813211J0D01*
G01*
X33655000Y-61264800D02*
X33655000Y-84836000D01*
X33655000Y-135608060D02*
X33655000Y-98117660D01*
X261467600Y-136804400D02*
X261721600Y-136804400D01*
X261698740Y-60043600D02*
X34876740Y-60043600D01*
X262917940Y-135628380D02*
X262917940Y-61257180D01*
X261696200Y-60043060D02*
G75*
G02X262917514Y-61264374I0J-1221314D01*
G01*
X262920054Y-135582660D02*
G75*
G02X261698740Y-136803974I-1221314J0D01*
G01*
X33655000Y-61264800D02*
G75*
G02X34876314Y-60043486I1221314J0D01*
G01*
X34850914Y-136803974D02*
G75*
G02X33655000Y-135608060I0J1195914D01*
G01*
D11*
G04 #@! TO.C,LED7*
X169036000Y-78346000D03*
X165736000Y-78346000D03*
X165736000Y-73546000D03*
X169036000Y-73546000D03*
G04 #@! TD*
D12*
G04 #@! TO.C,Q1*
X154045520Y-133130320D03*
X154045520Y-128530320D03*
X154045520Y-130830320D03*
D13*
X160345520Y-130830320D03*
G04 #@! TD*
D14*
G04 #@! TO.C,C1*
X100203000Y-122321000D03*
X100203000Y-124821000D03*
G04 #@! TD*
G04 #@! TO.C,C2*
X116713000Y-117368000D03*
X116713000Y-119868000D03*
G04 #@! TD*
G04 #@! TO.C,C3*
X115049300Y-131744400D03*
X115049300Y-134244400D03*
G04 #@! TD*
D15*
G04 #@! TO.C,C4*
X100350000Y-120015000D03*
X102850000Y-120015000D03*
G04 #@! TD*
D14*
G04 #@! TO.C,C5*
X103444040Y-134437440D03*
X103444040Y-131937440D03*
G04 #@! TD*
D15*
G04 #@! TO.C,C6*
X109875000Y-117475000D03*
X112375000Y-117475000D03*
G04 #@! TD*
D14*
G04 #@! TO.C,C7*
X38735000Y-98318000D03*
X38735000Y-100818000D03*
G04 #@! TD*
G04 #@! TO.C,C9*
X78079600Y-111348200D03*
X78079600Y-113848200D03*
G04 #@! TD*
G04 #@! TO.C,C10*
X62179200Y-121290400D03*
X62179200Y-118790400D03*
G04 #@! TD*
D15*
G04 #@! TO.C,C11*
X60940000Y-93853000D03*
X58440000Y-93853000D03*
G04 #@! TD*
D14*
G04 #@! TO.C,C12*
X57404000Y-75672000D03*
X57404000Y-73172000D03*
G04 #@! TD*
G04 #@! TO.C,C13*
X95694500Y-73362500D03*
X95694500Y-75862500D03*
G04 #@! TD*
G04 #@! TO.C,C14*
X133477000Y-75672000D03*
X133477000Y-73172000D03*
G04 #@! TD*
G04 #@! TO.C,C15*
X172085000Y-75862500D03*
X172085000Y-73362500D03*
G04 #@! TD*
G04 #@! TO.C,C16*
X210058000Y-75862500D03*
X210058000Y-73362500D03*
G04 #@! TD*
G04 #@! TO.C,C17*
X248158000Y-73362500D03*
X248158000Y-75862500D03*
G04 #@! TD*
G04 #@! TO.C,C18*
X241554000Y-98572000D03*
X241554000Y-101072000D03*
G04 #@! TD*
G04 #@! TO.C,C19*
X242265200Y-111221200D03*
X242265200Y-113721200D03*
G04 #@! TD*
G04 #@! TO.C,C20*
X201168000Y-118364000D03*
X201168000Y-115864000D03*
G04 #@! TD*
D15*
G04 #@! TO.C,C21*
X182860000Y-115443000D03*
X180360000Y-115443000D03*
G04 #@! TD*
G04 #@! TO.C,C22*
X147848000Y-124460000D03*
X150348000Y-124460000D03*
G04 #@! TD*
D16*
G04 #@! TO.C,D1*
X51562000Y-67922600D03*
X51562000Y-65122600D03*
G04 #@! TD*
G04 #@! TO.C,D2*
X70662800Y-65122600D03*
X70662800Y-67922600D03*
G04 #@! TD*
G04 #@! TO.C,D3*
X89687400Y-67948000D03*
X89687400Y-65148000D03*
G04 #@! TD*
G04 #@! TO.C,D4*
X108762800Y-65300400D03*
X108762800Y-68100400D03*
G04 #@! TD*
G04 #@! TO.C,D5*
X127812800Y-68125800D03*
X127812800Y-65325800D03*
G04 #@! TD*
G04 #@! TO.C,D6*
X146837400Y-67922600D03*
X146837400Y-65122600D03*
G04 #@! TD*
G04 #@! TO.C,D7*
X165887400Y-67922600D03*
X165887400Y-65122600D03*
G04 #@! TD*
G04 #@! TO.C,D8*
X184937400Y-67897200D03*
X184937400Y-65097200D03*
G04 #@! TD*
G04 #@! TO.C,D9*
X204012800Y-67897200D03*
X204012800Y-65097200D03*
G04 #@! TD*
G04 #@! TO.C,D10*
X223088200Y-67922600D03*
X223088200Y-65122600D03*
G04 #@! TD*
G04 #@! TO.C,D11*
X242112800Y-67897200D03*
X242112800Y-65097200D03*
G04 #@! TD*
G04 #@! TO.C,D12*
X261175500Y-67884500D03*
X261175500Y-65084500D03*
G04 #@! TD*
G04 #@! TO.C,D13*
X35306000Y-72768000D03*
X35306000Y-75568000D03*
G04 #@! TD*
G04 #@! TO.C,D14*
X75311000Y-85855000D03*
X75311000Y-83055000D03*
G04 #@! TD*
G04 #@! TO.C,D15*
X94996000Y-86109000D03*
X94996000Y-83309000D03*
G04 #@! TD*
G04 #@! TO.C,D16*
X113919000Y-86236000D03*
X113919000Y-83436000D03*
G04 #@! TD*
G04 #@! TO.C,D17*
X132842000Y-86363000D03*
X132842000Y-83563000D03*
G04 #@! TD*
G04 #@! TO.C,D18*
X151511000Y-86490000D03*
X151511000Y-83690000D03*
G04 #@! TD*
G04 #@! TO.C,D19*
X170942000Y-83753500D03*
X170942000Y-86553500D03*
G04 #@! TD*
G04 #@! TO.C,D20*
X189992000Y-86490000D03*
X189992000Y-83690000D03*
G04 #@! TD*
G04 #@! TO.C,D21*
X208978500Y-86490000D03*
X208978500Y-83690000D03*
G04 #@! TD*
G04 #@! TO.C,D22*
X227901500Y-86172500D03*
X227901500Y-83372500D03*
G04 #@! TD*
G04 #@! TO.C,D23*
X254635000Y-86553500D03*
X254635000Y-83753500D03*
G04 #@! TD*
G04 #@! TO.C,D24*
X39878000Y-108334000D03*
X39878000Y-105534000D03*
G04 #@! TD*
G04 #@! TO.C,D25*
X63982600Y-103336900D03*
X63982600Y-106136900D03*
G04 #@! TD*
G04 #@! TO.C,D26*
X99314000Y-103375000D03*
X99314000Y-106175000D03*
G04 #@! TD*
G04 #@! TO.C,D27*
X118237000Y-103375000D03*
X118237000Y-106175000D03*
G04 #@! TD*
G04 #@! TO.C,D28*
X137287000Y-103375000D03*
X137287000Y-106175000D03*
G04 #@! TD*
G04 #@! TO.C,D29*
X156337000Y-103375000D03*
X156337000Y-106175000D03*
G04 #@! TD*
G04 #@! TO.C,D30*
X175387000Y-106175000D03*
X175387000Y-103375000D03*
G04 #@! TD*
G04 #@! TO.C,D31*
X194437000Y-103375000D03*
X194437000Y-106175000D03*
G04 #@! TD*
G04 #@! TO.C,D32*
X213614000Y-103375000D03*
X213614000Y-106175000D03*
G04 #@! TD*
G04 #@! TO.C,D33*
X232537000Y-101978000D03*
X232537000Y-104778000D03*
G04 #@! TD*
G04 #@! TO.C,D34*
X256540000Y-102740000D03*
X256540000Y-105540000D03*
G04 #@! TD*
G04 #@! TO.C,D35*
X53975000Y-130559000D03*
X53975000Y-127759000D03*
G04 #@! TD*
G04 #@! TO.C,D36*
X77851000Y-130559000D03*
X77851000Y-127759000D03*
G04 #@! TD*
G04 #@! TO.C,D37*
X85471000Y-130686000D03*
X85471000Y-127886000D03*
G04 #@! TD*
G04 #@! TO.C,D38*
X139827000Y-130368500D03*
X139827000Y-127568500D03*
G04 #@! TD*
G04 #@! TO.C,D39*
X178562000Y-131765500D03*
X178562000Y-128965500D03*
G04 #@! TD*
G04 #@! TO.C,D40*
X202057000Y-131892500D03*
X202057000Y-129092500D03*
G04 #@! TD*
G04 #@! TO.C,D41*
X223012000Y-131625800D03*
X223012000Y-128825800D03*
G04 #@! TD*
G04 #@! TO.C,D42*
X242189000Y-131892500D03*
X242189000Y-129092500D03*
G04 #@! TD*
G04 #@! TO.C,D43*
X261302500Y-131638500D03*
X261302500Y-128838500D03*
G04 #@! TD*
D11*
G04 #@! TO.C,LED1*
X80201500Y-118504000D03*
X83501500Y-118504000D03*
X83501500Y-123304000D03*
X80201500Y-123304000D03*
G04 #@! TD*
G04 #@! TO.C,LED2*
X59625500Y-118567500D03*
X56325500Y-118567500D03*
X56325500Y-123367500D03*
X59625500Y-123367500D03*
G04 #@! TD*
G04 #@! TO.C,LED3*
X57976500Y-96152000D03*
X61276500Y-96152000D03*
X61276500Y-100952000D03*
X57976500Y-100952000D03*
G04 #@! TD*
G04 #@! TO.C,LED4*
X54736000Y-73546000D03*
X51436000Y-73546000D03*
X51436000Y-78346000D03*
X54736000Y-78346000D03*
G04 #@! TD*
G04 #@! TO.C,LED5*
X92836000Y-78346000D03*
X89536000Y-78346000D03*
X89536000Y-73546000D03*
X92836000Y-73546000D03*
G04 #@! TD*
G04 #@! TO.C,LED6*
X130936000Y-73546000D03*
X127636000Y-73546000D03*
X127636000Y-78346000D03*
X130936000Y-78346000D03*
G04 #@! TD*
G04 #@! TO.C,LED8*
X207136000Y-73546000D03*
X203836000Y-73546000D03*
X203836000Y-78346000D03*
X207136000Y-78346000D03*
G04 #@! TD*
G04 #@! TO.C,LED9*
X245236000Y-78346000D03*
X241936000Y-78346000D03*
X241936000Y-73546000D03*
X245236000Y-73546000D03*
G04 #@! TD*
G04 #@! TO.C,LED10*
X238632000Y-96152000D03*
X235332000Y-96152000D03*
X235332000Y-100952000D03*
X238632000Y-100952000D03*
G04 #@! TD*
G04 #@! TO.C,LED11*
X241872500Y-118504000D03*
X245172500Y-118504000D03*
X245172500Y-123304000D03*
X241872500Y-123304000D03*
G04 #@! TD*
G04 #@! TO.C,LED12*
X203772500Y-123304000D03*
X207072500Y-123304000D03*
X207072500Y-118504000D03*
X203772500Y-118504000D03*
G04 #@! TD*
G04 #@! TO.C,LED13*
X180341000Y-118504000D03*
X183641000Y-118504000D03*
X183641000Y-123304000D03*
X180341000Y-123304000D03*
G04 #@! TD*
D17*
G04 #@! TO.C,LED14*
X147206000Y-121665000D03*
X147206000Y-118365000D03*
X152006000Y-118365000D03*
X152006000Y-121665000D03*
G04 #@! TD*
D18*
G04 #@! TO.C,NPNR1*
X156514800Y-123422400D03*
X156514800Y-120722400D03*
G04 #@! TD*
G04 #@! TO.C,R1*
X237794800Y-83994000D03*
X237794800Y-86694000D03*
G04 #@! TD*
G04 #@! TO.C,R2*
X100711000Y-132058400D03*
X100711000Y-129358400D03*
G04 #@! TD*
G04 #@! TO.C,R3*
X54330600Y-68787000D03*
X54330600Y-66087000D03*
G04 #@! TD*
G04 #@! TO.C,R4*
X73533000Y-70565000D03*
X73533000Y-67865000D03*
G04 #@! TD*
D19*
G04 #@! TO.C,R5*
X80344000Y-78232000D03*
X77644000Y-78232000D03*
G04 #@! TD*
D18*
G04 #@! TO.C,R6*
X111633000Y-70565000D03*
X111633000Y-67865000D03*
G04 #@! TD*
D19*
G04 #@! TO.C,R7*
X120857000Y-78105000D03*
X118157000Y-78105000D03*
G04 #@! TD*
G04 #@! TO.C,R8*
X140796000Y-78105000D03*
X138096000Y-78105000D03*
G04 #@! TD*
D18*
G04 #@! TO.C,R9*
X149733000Y-70565000D03*
X149733000Y-67865000D03*
G04 #@! TD*
D19*
G04 #@! TO.C,R10*
X178388000Y-78232000D03*
X175688000Y-78232000D03*
G04 #@! TD*
D18*
G04 #@! TO.C,R11*
X187833000Y-70565000D03*
X187833000Y-67865000D03*
G04 #@! TD*
D19*
G04 #@! TO.C,R12*
X216234000Y-78105000D03*
X213534000Y-78105000D03*
G04 #@! TD*
D18*
G04 #@! TO.C,R13*
X225933000Y-70565000D03*
X225933000Y-67865000D03*
G04 #@! TD*
D19*
G04 #@! TO.C,R14*
X254842000Y-78105000D03*
X252142000Y-78105000D03*
G04 #@! TD*
D18*
G04 #@! TO.C,R15*
X57023000Y-88091000D03*
X57023000Y-85391000D03*
G04 #@! TD*
G04 #@! TO.C,R16*
X78232000Y-87194400D03*
X78232000Y-89894400D03*
G04 #@! TD*
G04 #@! TO.C,R17*
X97434400Y-89792800D03*
X97434400Y-87092800D03*
G04 #@! TD*
G04 #@! TO.C,R18*
X116433600Y-87092800D03*
X116433600Y-89792800D03*
G04 #@! TD*
G04 #@! TO.C,R19*
X135534400Y-87042000D03*
X135534400Y-89742000D03*
G04 #@! TD*
G04 #@! TO.C,R20*
X154482800Y-89742000D03*
X154482800Y-87042000D03*
G04 #@! TD*
G04 #@! TO.C,R21*
X173545500Y-87042000D03*
X173545500Y-89742000D03*
G04 #@! TD*
G04 #@! TO.C,R22*
X192608200Y-91570800D03*
X192608200Y-88870800D03*
G04 #@! TD*
D19*
G04 #@! TO.C,R23*
X199089000Y-80899000D03*
X196389000Y-80899000D03*
G04 #@! TD*
D18*
G04 #@! TO.C,R24*
X211582000Y-89742000D03*
X211582000Y-87042000D03*
G04 #@! TD*
G04 #@! TO.C,R25*
X258191000Y-89488000D03*
X258191000Y-86788000D03*
G04 #@! TD*
G04 #@! TO.C,R26*
X36449000Y-109173000D03*
X36449000Y-106473000D03*
G04 #@! TD*
D19*
G04 #@! TO.C,R27*
X69262000Y-97282000D03*
X71962000Y-97282000D03*
G04 #@! TD*
G04 #@! TO.C,R28*
X92917000Y-97129600D03*
X90217000Y-97129600D03*
G04 #@! TD*
D18*
G04 #@! TO.C,R29*
X120523000Y-107268000D03*
X120523000Y-104568000D03*
G04 #@! TD*
G04 #@! TO.C,R30*
X140208000Y-104568000D03*
X140208000Y-107268000D03*
G04 #@! TD*
G04 #@! TO.C,R31*
X159258000Y-104568000D03*
X159258000Y-107268000D03*
G04 #@! TD*
G04 #@! TO.C,R32*
X177995580Y-107237520D03*
X177995580Y-104537520D03*
G04 #@! TD*
G04 #@! TO.C,R33*
X197231000Y-104568000D03*
X197231000Y-107268000D03*
G04 #@! TD*
G04 #@! TO.C,R34*
X216281000Y-107268000D03*
X216281000Y-104568000D03*
G04 #@! TD*
G04 #@! TO.C,R35*
X235204000Y-108886000D03*
X235204000Y-111586000D03*
G04 #@! TD*
G04 #@! TO.C,R36*
X259842000Y-105363000D03*
X259842000Y-102663000D03*
G04 #@! TD*
G04 #@! TO.C,R37*
X37719000Y-121031000D03*
X37719000Y-123731000D03*
G04 #@! TD*
D19*
G04 #@! TO.C,R38*
X70946000Y-118491000D03*
X68246000Y-118491000D03*
G04 #@! TD*
G04 #@! TO.C,R39*
X91487000Y-118364000D03*
X94187000Y-118364000D03*
G04 #@! TD*
G04 #@! TO.C,R40*
X132795000Y-118618000D03*
X130095000Y-118618000D03*
G04 #@! TD*
G04 #@! TO.C,R41*
X167687000Y-118300500D03*
X170387000Y-118300500D03*
G04 #@! TD*
G04 #@! TO.C,R42*
X191626500Y-118491000D03*
X194326500Y-118491000D03*
G04 #@! TD*
G04 #@! TO.C,R43*
X216107000Y-118681500D03*
X213407000Y-118681500D03*
G04 #@! TD*
G04 #@! TO.C,R44*
X232139500Y-118681500D03*
X234839500Y-118681500D03*
G04 #@! TD*
G04 #@! TO.C,R45*
X254918200Y-117271800D03*
X252218200Y-117271800D03*
G04 #@! TD*
D18*
G04 #@! TO.C,RGBR1*
X81788000Y-131398000D03*
X81788000Y-128698000D03*
G04 #@! TD*
D20*
G04 #@! TO.C,SW1*
X231112500Y-81102000D03*
D21*
X235612500Y-81102000D03*
X235612500Y-90602000D03*
X231112500Y-90602000D03*
G04 #@! TD*
D22*
G04 #@! TO.C,U1*
X103378000Y-126238000D03*
X103378000Y-125437900D03*
X103378000Y-124637800D03*
X103378000Y-123837700D03*
X103378000Y-123037600D03*
X103378000Y-122237500D03*
X103378000Y-127038100D03*
X103378000Y-127838200D03*
X103378000Y-128638300D03*
X103378000Y-129438400D03*
X103378000Y-130238500D03*
X114808000Y-126238000D03*
X114808000Y-125437900D03*
X114808000Y-124637800D03*
X114808000Y-123837700D03*
X114808000Y-123037600D03*
X114808000Y-122237500D03*
X114808000Y-127038100D03*
X114808000Y-127838200D03*
X114808000Y-128638300D03*
X114808000Y-129438400D03*
X114808000Y-130238500D03*
D23*
X109093000Y-120523000D03*
X109093000Y-131953000D03*
X109893100Y-120523000D03*
X109893100Y-131953000D03*
X110693200Y-131953000D03*
X110693200Y-120523000D03*
X111493300Y-120523000D03*
X111493300Y-131953000D03*
X112293400Y-131953000D03*
X112293400Y-120523000D03*
X113093500Y-120523000D03*
X113093500Y-131953000D03*
X108292900Y-131953000D03*
X108292900Y-120523000D03*
X107492800Y-120523000D03*
X107492800Y-131953000D03*
X106692700Y-131953000D03*
X106692700Y-120523000D03*
X105892600Y-120523000D03*
X105892600Y-131953000D03*
X105092500Y-131953000D03*
X105092500Y-120523000D03*
G04 #@! TD*
D24*
G04 #@! TO.C,U2*
X41160000Y-97742500D03*
D25*
X42860000Y-97742500D03*
X42860000Y-99742500D03*
X40960000Y-99742500D03*
G04 #@! TD*
D26*
G04 #@! TO.C,X1*
X121165000Y-128704000D03*
X121165000Y-125804000D03*
X118865000Y-125804000D03*
X118865000Y-128704000D03*
G04 #@! TD*
D15*
G04 #@! TO.C,XC1*
X121201500Y-131445000D03*
X118701500Y-131445000D03*
G04 #@! TD*
G04 #@! TO.C,XC2*
X121264999Y-123063000D03*
X118765001Y-123063000D03*
G04 #@! TD*
D27*
G04 #@! TO.C,USB1*
X38611500Y-91753500D03*
X38611500Y-91253500D03*
X38611500Y-90753500D03*
X38611500Y-92253500D03*
X38611500Y-90253500D03*
X38611500Y-92753500D03*
X38611500Y-89753500D03*
X38611500Y-93253500D03*
D28*
X38611500Y-93953500D03*
X38611500Y-89053500D03*
X38611500Y-94728500D03*
X38611500Y-88278500D03*
G04 #@! TD*
D29*
G04 #@! TO.C,F1*
X40063000Y-82169000D03*
X35883000Y-82169000D03*
G04 #@! TD*
D30*
G04 #@! TO.C,UR1*
X45640000Y-99806760D03*
X48340000Y-99806760D03*
G04 #@! TD*
G04 #@! TO.C,UR2*
X45640000Y-97663000D03*
X48340000Y-97663000D03*
G04 #@! TD*
D31*
G04 #@! TO.C,UR3*
X51348640Y-86015820D03*
X51348640Y-83315820D03*
G04 #@! TD*
G04 #@! TO.C,UR4*
X53721000Y-87550000D03*
X53721000Y-90250000D03*
G04 #@! TD*
G04 #@! TO.C,UR5*
X35179000Y-97837000D03*
X35179000Y-100537000D03*
G04 #@! TD*
M02*
