%TF.GenerationSoftware,KiCad,Pcbnew,(5.0.0)*%
%TF.CreationDate,2018-08-11T01:35:01+03:00*%
%TF.ProjectId,cpm43,63706D34332E6B696361645F70636200,rev?*%
%TF.SameCoordinates,Original*%
%TF.FileFunction,Paste,Bot*%
%TF.FilePolarity,Positive*%
%FSLAX46Y46*%
G04 Gerber Fmt 4.6, Leading zero omitted, Abs format (unit mm)*
G04 Created by KiCad (PCBNEW (5.0.0)) date 08/11/18 01:35:01*
%MOMM*%
%LPD*%
G01*
G04 APERTURE LIST*
%ADD10C,0.200000*%
%ADD11R,1.400000X1.800000*%
%ADD12R,2.000000X1.500000*%
%ADD13R,2.000000X3.800000*%
%ADD14R,1.250000X1.500000*%
%ADD15R,1.500000X1.250000*%
%ADD16R,1.200000X1.600000*%
%ADD17R,1.800000X1.400000*%
%ADD18R,1.200000X1.500000*%
%ADD19R,1.500000X1.200000*%
%ADD20R,1.300000X1.540000*%
%ADD21R,1.300000X1.550000*%
%ADD22R,1.524000X0.406400*%
%ADD23R,0.406400X1.524000*%
%ADD24R,1.000000X1.200000*%
%ADD25R,0.600000X1.200000*%
%ADD26R,1.800000X2.100000*%
%ADD27R,2.450000X0.300000*%
%ADD28R,2.450000X0.600000*%
%ADD29R,2.650000X2.030000*%
%ADD30R,1.500000X1.300000*%
%ADD31R,1.300000X1.500000*%
G04 APERTURE END LIST*
D10*
X33274000Y-97282000D02*
X32766000Y-97282000D01*
X32766000Y-85852000D02*
X33274000Y-85852000D01*
X33274000Y-62992000D02*
X33274000Y-85852000D01*
X33274000Y-97282000D02*
X33274000Y-134112000D01*
X30988000Y-87630000D02*
X30988000Y-95504000D01*
X30988000Y-87630000D02*
G75*
G02X32766000Y-85852000I1778000J0D01*
G01*
X32766000Y-97282000D02*
G75*
G02X30988000Y-95504000I0J1778000D01*
G01*
X36068000Y-60198000D02*
X260350000Y-60198000D01*
X260350000Y-136906000D02*
X36068000Y-136906000D01*
X263144000Y-62992000D02*
X263144000Y-134112000D01*
X260350000Y-60198000D02*
G75*
G02X263144000Y-62992000I0J-2794000D01*
G01*
X263144000Y-134112000D02*
G75*
G02X260350000Y-136906000I-2794000J0D01*
G01*
X36068000Y-136906000D02*
G75*
G02X33274000Y-134112000I0J2794000D01*
G01*
X33274000Y-62992000D02*
G75*
G02X36068000Y-60198000I2794000J0D01*
G01*
D11*
X169036000Y-78346000D03*
X165736000Y-78346000D03*
X165736000Y-73546000D03*
X169036000Y-73546000D03*
D12*
X154045520Y-133130320D03*
X154045520Y-128530320D03*
X154045520Y-130830320D03*
D13*
X160345520Y-130830320D03*
D14*
X100203000Y-122321000D03*
X100203000Y-124821000D03*
X116385340Y-117555960D03*
X116385340Y-120055960D03*
X115049300Y-131744400D03*
X115049300Y-134244400D03*
D15*
X100350000Y-120015000D03*
X102850000Y-120015000D03*
D14*
X103444040Y-134437440D03*
X103444040Y-131937440D03*
D15*
X109875000Y-117475000D03*
X112375000Y-117475000D03*
D14*
X38735000Y-98318000D03*
X38735000Y-100818000D03*
X78079600Y-111348200D03*
X78079600Y-113848200D03*
X62179200Y-121290400D03*
X62179200Y-118790400D03*
D15*
X60940000Y-93853000D03*
X58440000Y-93853000D03*
D14*
X57404000Y-75672000D03*
X57404000Y-73172000D03*
X95694500Y-73362500D03*
X95694500Y-75862500D03*
X133477000Y-75672000D03*
X133477000Y-73172000D03*
X172085000Y-75862500D03*
X172085000Y-73362500D03*
X210058000Y-75862500D03*
X210058000Y-73362500D03*
X248158000Y-73362500D03*
X248158000Y-75862500D03*
X241554000Y-98572000D03*
X241554000Y-101072000D03*
X242265200Y-111221200D03*
X242265200Y-113721200D03*
X201168000Y-118364000D03*
X201168000Y-115864000D03*
D15*
X182860000Y-115443000D03*
X180360000Y-115443000D03*
X147848000Y-124460000D03*
X150348000Y-124460000D03*
D16*
X51562000Y-67922600D03*
X51562000Y-65122600D03*
X70662800Y-65122600D03*
X70662800Y-67922600D03*
X89687400Y-67948000D03*
X89687400Y-65148000D03*
X108762800Y-65300400D03*
X108762800Y-68100400D03*
X127812800Y-68125800D03*
X127812800Y-65325800D03*
X146837400Y-67922600D03*
X146837400Y-65122600D03*
X165887400Y-67922600D03*
X165887400Y-65122600D03*
X184937400Y-67897200D03*
X184937400Y-65097200D03*
X204012800Y-67897200D03*
X204012800Y-65097200D03*
X223088200Y-67922600D03*
X223088200Y-65122600D03*
X242112800Y-67897200D03*
X242112800Y-65097200D03*
X261175500Y-67884500D03*
X261175500Y-65084500D03*
X35306000Y-72768000D03*
X35306000Y-75568000D03*
X75311000Y-85855000D03*
X75311000Y-83055000D03*
X94996000Y-86109000D03*
X94996000Y-83309000D03*
X113919000Y-86236000D03*
X113919000Y-83436000D03*
X132842000Y-86363000D03*
X132842000Y-83563000D03*
X151511000Y-86490000D03*
X151511000Y-83690000D03*
X170942000Y-83753500D03*
X170942000Y-86553500D03*
X189992000Y-86490000D03*
X189992000Y-83690000D03*
X208978500Y-86490000D03*
X208978500Y-83690000D03*
X227901500Y-86172500D03*
X227901500Y-83372500D03*
X254635000Y-86553500D03*
X254635000Y-83753500D03*
X39878000Y-108334000D03*
X39878000Y-105534000D03*
X63982600Y-103336900D03*
X63982600Y-106136900D03*
X99314000Y-103375000D03*
X99314000Y-106175000D03*
X118237000Y-103375000D03*
X118237000Y-106175000D03*
X137287000Y-103375000D03*
X137287000Y-106175000D03*
X156337000Y-103375000D03*
X156337000Y-106175000D03*
X175387000Y-106175000D03*
X175387000Y-103375000D03*
X194437000Y-103375000D03*
X194437000Y-106175000D03*
X213614000Y-103375000D03*
X213614000Y-106175000D03*
X232537000Y-101978000D03*
X232537000Y-104778000D03*
X256540000Y-102740000D03*
X256540000Y-105540000D03*
X53975000Y-130559000D03*
X53975000Y-127759000D03*
X77851000Y-130559000D03*
X77851000Y-127759000D03*
X85471000Y-130686000D03*
X85471000Y-127886000D03*
X139827000Y-130368500D03*
X139827000Y-127568500D03*
X178562000Y-131765500D03*
X178562000Y-128965500D03*
X202057000Y-131892500D03*
X202057000Y-129092500D03*
X223012000Y-131625800D03*
X223012000Y-128825800D03*
X242189000Y-131892500D03*
X242189000Y-129092500D03*
X261302500Y-131638500D03*
X261302500Y-128838500D03*
D11*
X80201500Y-118504000D03*
X83501500Y-118504000D03*
X83501500Y-123304000D03*
X80201500Y-123304000D03*
X59625500Y-118567500D03*
X56325500Y-118567500D03*
X56325500Y-123367500D03*
X59625500Y-123367500D03*
X57976500Y-96152000D03*
X61276500Y-96152000D03*
X61276500Y-100952000D03*
X57976500Y-100952000D03*
X54736000Y-73546000D03*
X51436000Y-73546000D03*
X51436000Y-78346000D03*
X54736000Y-78346000D03*
X92836000Y-78346000D03*
X89536000Y-78346000D03*
X89536000Y-73546000D03*
X92836000Y-73546000D03*
X130936000Y-73546000D03*
X127636000Y-73546000D03*
X127636000Y-78346000D03*
X130936000Y-78346000D03*
X207136000Y-73546000D03*
X203836000Y-73546000D03*
X203836000Y-78346000D03*
X207136000Y-78346000D03*
X245236000Y-78346000D03*
X241936000Y-78346000D03*
X241936000Y-73546000D03*
X245236000Y-73546000D03*
X238632000Y-96152000D03*
X235332000Y-96152000D03*
X235332000Y-100952000D03*
X238632000Y-100952000D03*
X241872500Y-118504000D03*
X245172500Y-118504000D03*
X245172500Y-123304000D03*
X241872500Y-123304000D03*
X203772500Y-123304000D03*
X207072500Y-123304000D03*
X207072500Y-118504000D03*
X203772500Y-118504000D03*
X180341000Y-118504000D03*
X183641000Y-118504000D03*
X183641000Y-123304000D03*
X180341000Y-123304000D03*
D17*
X147894340Y-121614200D03*
X147894340Y-118314200D03*
X152694340Y-118314200D03*
X152694340Y-121614200D03*
D18*
X156514800Y-123422400D03*
X156514800Y-120722400D03*
X238506000Y-83994000D03*
X238506000Y-86694000D03*
X100711000Y-132058400D03*
X100711000Y-129358400D03*
X54330600Y-68787000D03*
X54330600Y-66087000D03*
X73533000Y-70565000D03*
X73533000Y-67865000D03*
D19*
X80344000Y-78232000D03*
X77644000Y-78232000D03*
D18*
X111633000Y-70565000D03*
X111633000Y-67865000D03*
D19*
X120857000Y-78105000D03*
X118157000Y-78105000D03*
X140796000Y-78105000D03*
X138096000Y-78105000D03*
D18*
X149733000Y-70565000D03*
X149733000Y-67865000D03*
D19*
X178388000Y-78232000D03*
X175688000Y-78232000D03*
D18*
X187833000Y-70565000D03*
X187833000Y-67865000D03*
D19*
X216234000Y-78105000D03*
X213534000Y-78105000D03*
D18*
X225933000Y-70565000D03*
X225933000Y-67865000D03*
D19*
X254842000Y-78105000D03*
X252142000Y-78105000D03*
D18*
X57023000Y-88091000D03*
X57023000Y-85391000D03*
X78232000Y-87194400D03*
X78232000Y-89894400D03*
X97434400Y-89792800D03*
X97434400Y-87092800D03*
X116433600Y-87092800D03*
X116433600Y-89792800D03*
X135534400Y-87042000D03*
X135534400Y-89742000D03*
X154482800Y-89742000D03*
X154482800Y-87042000D03*
X173545500Y-87042000D03*
X173545500Y-89742000D03*
X192608200Y-91570800D03*
X192608200Y-88870800D03*
D19*
X199089000Y-80899000D03*
X196389000Y-80899000D03*
D18*
X211582000Y-89742000D03*
X211582000Y-87042000D03*
X258191000Y-89488000D03*
X258191000Y-86788000D03*
X36449000Y-109173000D03*
X36449000Y-106473000D03*
D19*
X69262000Y-97282000D03*
X71962000Y-97282000D03*
X92917000Y-97129600D03*
X90217000Y-97129600D03*
D18*
X120523000Y-107268000D03*
X120523000Y-104568000D03*
X140208000Y-104568000D03*
X140208000Y-107268000D03*
X159258000Y-104568000D03*
X159258000Y-107268000D03*
X177995580Y-107237520D03*
X177995580Y-104537520D03*
X197231000Y-104568000D03*
X197231000Y-107268000D03*
X216281000Y-107268000D03*
X216281000Y-104568000D03*
X235204000Y-108886000D03*
X235204000Y-111586000D03*
X259842000Y-105363000D03*
X259842000Y-102663000D03*
X37719000Y-121031000D03*
X37719000Y-123731000D03*
D19*
X70946000Y-118491000D03*
X68246000Y-118491000D03*
X91487000Y-118364000D03*
X94187000Y-118364000D03*
X132795000Y-118618000D03*
X130095000Y-118618000D03*
X167687000Y-118300500D03*
X170387000Y-118300500D03*
X191626500Y-118491000D03*
X194326500Y-118491000D03*
X216107000Y-118681500D03*
X213407000Y-118681500D03*
X232139500Y-118681500D03*
X234839500Y-118681500D03*
X254918200Y-117271800D03*
X252218200Y-117271800D03*
D18*
X81788000Y-131398000D03*
X81788000Y-128698000D03*
D20*
X235574400Y-90602000D03*
D21*
X231074400Y-90602000D03*
X231074400Y-81102000D03*
X235574400Y-81102000D03*
D22*
X103378000Y-126238000D03*
X103378000Y-125437900D03*
X103378000Y-124637800D03*
X103378000Y-123837700D03*
X103378000Y-123037600D03*
X103378000Y-122237500D03*
X103378000Y-127038100D03*
X103378000Y-127838200D03*
X103378000Y-128638300D03*
X103378000Y-129438400D03*
X103378000Y-130238500D03*
X114808000Y-126238000D03*
X114808000Y-125437900D03*
X114808000Y-124637800D03*
X114808000Y-123837700D03*
X114808000Y-123037600D03*
X114808000Y-122237500D03*
X114808000Y-127038100D03*
X114808000Y-127838200D03*
X114808000Y-128638300D03*
X114808000Y-129438400D03*
X114808000Y-130238500D03*
D23*
X109093000Y-120523000D03*
X109093000Y-131953000D03*
X109893100Y-120523000D03*
X109893100Y-131953000D03*
X110693200Y-131953000D03*
X110693200Y-120523000D03*
X111493300Y-120523000D03*
X111493300Y-131953000D03*
X112293400Y-131953000D03*
X112293400Y-120523000D03*
X113093500Y-120523000D03*
X113093500Y-131953000D03*
X108292900Y-131953000D03*
X108292900Y-120523000D03*
X107492800Y-120523000D03*
X107492800Y-131953000D03*
X106692700Y-131953000D03*
X106692700Y-120523000D03*
X105892600Y-120523000D03*
X105892600Y-131953000D03*
X105092500Y-131953000D03*
X105092500Y-120523000D03*
D24*
X41160000Y-97742500D03*
D25*
X42860000Y-97742500D03*
X42860000Y-99742500D03*
X40960000Y-99742500D03*
D26*
X121165000Y-128704000D03*
X121165000Y-125804000D03*
X118865000Y-125804000D03*
X118865000Y-128704000D03*
D15*
X121239600Y-131064000D03*
X118739600Y-131064000D03*
X121264999Y-123063000D03*
X118765001Y-123063000D03*
D27*
X38611500Y-91753500D03*
X38611500Y-91253500D03*
X38611500Y-90753500D03*
X38611500Y-92253500D03*
X38611500Y-90253500D03*
X38611500Y-92753500D03*
X38611500Y-89753500D03*
X38611500Y-93253500D03*
D28*
X38611500Y-93953500D03*
X38611500Y-89053500D03*
X38611500Y-94728500D03*
X38611500Y-88278500D03*
D29*
X40063000Y-82169000D03*
X35883000Y-82169000D03*
D30*
X45640000Y-99806760D03*
X48340000Y-99806760D03*
X45640000Y-97663000D03*
X48340000Y-97663000D03*
D31*
X51348640Y-86015820D03*
X51348640Y-83315820D03*
X53721000Y-87550000D03*
X53721000Y-90250000D03*
X35179000Y-97837000D03*
X35179000Y-100537000D03*
M02*
