%TF.GenerationSoftware,KiCad,Pcbnew,(5.0.0)*%
%TF.CreationDate,2018-09-08T20:18:51+03:00*%
%TF.ProjectId,cpm43,63706D34332E6B696361645F70636200,rev?*%
%TF.SameCoordinates,Original*%
%TF.FileFunction,Soldermask,Top*%
%TF.FilePolarity,Negative*%
%FSLAX46Y46*%
G04 Gerber Fmt 4.6, Leading zero omitted, Abs format (unit mm)*
G04 Created by KiCad (PCBNEW (5.0.0)) date 09/08/18 20:18:51*
%MOMM*%
%LPD*%
G01*
G04 APERTURE LIST*
%ADD10C,0.200000*%
%ADD11O,2.000000X3.000000*%
%ADD12O,1.700000X1.700000*%
%ADD13R,1.700000X1.700000*%
%ADD14C,1.600000*%
%ADD15R,1.600000X1.600000*%
%ADD16C,1.750000*%
%ADD17C,3.987800*%
%ADD18C,3.048000*%
%ADD19O,1.600000X1.000000*%
%ADD20O,2.100000X1.000000*%
%ADD21C,0.650000*%
G04 APERTURE END LIST*
D10*
X33274000Y-97282000D02*
X32766000Y-97282000D01*
X32766000Y-85852000D02*
X33274000Y-85852000D01*
X33274000Y-62992000D02*
X33274000Y-85852000D01*
X33274000Y-97282000D02*
X33274000Y-134112000D01*
X30988000Y-87630000D02*
X30988000Y-95504000D01*
X30988000Y-87630000D02*
G75*
G02X32766000Y-85852000I1778000J0D01*
G01*
X32766000Y-97282000D02*
G75*
G02X30988000Y-95504000I0J1778000D01*
G01*
X36068000Y-60198000D02*
X260350000Y-60198000D01*
X260350000Y-136906000D02*
X36068000Y-136906000D01*
X263144000Y-62992000D02*
X263144000Y-134112000D01*
X260350000Y-60198000D02*
G75*
G02X263144000Y-62992000I0J-2794000D01*
G01*
X263144000Y-134112000D02*
G75*
G02X260350000Y-136906000I-2794000J0D01*
G01*
X36068000Y-136906000D02*
G75*
G02X33274000Y-134112000I0J2794000D01*
G01*
X33274000Y-62992000D02*
G75*
G02X36068000Y-60198000I2794000J0D01*
G01*
D11*
%TO.C,P?*%
X68707000Y-62484000D03*
%TD*%
D12*
%TO.C,SPI1*%
X133197600Y-116255800D03*
X133197600Y-118795800D03*
X130657600Y-116255800D03*
X130657600Y-118795800D03*
X128117600Y-116255800D03*
D13*
X128117600Y-118795800D03*
%TD*%
D14*
%TO.C,D1*%
X51562000Y-70422600D03*
D15*
X51562000Y-62622600D03*
%TD*%
%TO.C,D2*%
X71501000Y-62648000D03*
D14*
X71501000Y-70448000D03*
%TD*%
%TO.C,D3*%
X89687400Y-70448000D03*
D15*
X89687400Y-62648000D03*
%TD*%
%TO.C,D4*%
X108762800Y-62800400D03*
D14*
X108762800Y-70600400D03*
%TD*%
%TO.C,D5*%
X127812800Y-70625800D03*
D15*
X127812800Y-62825800D03*
%TD*%
D14*
%TO.C,D6*%
X146837400Y-70422600D03*
D15*
X146837400Y-62622600D03*
%TD*%
D14*
%TO.C,D7*%
X165887400Y-70422600D03*
D15*
X165887400Y-62622600D03*
%TD*%
D14*
%TO.C,D8*%
X184937400Y-70397200D03*
D15*
X184937400Y-62597200D03*
%TD*%
D14*
%TO.C,D9*%
X204012800Y-70397200D03*
D15*
X204012800Y-62597200D03*
%TD*%
D14*
%TO.C,D10*%
X223088200Y-70422600D03*
D15*
X223088200Y-62622600D03*
%TD*%
D14*
%TO.C,D11*%
X242112800Y-70397200D03*
D15*
X242112800Y-62597200D03*
%TD*%
D14*
%TO.C,D12*%
X261175500Y-70384500D03*
D15*
X261175500Y-62584500D03*
%TD*%
D14*
%TO.C,D13*%
X35306000Y-70268000D03*
D15*
X35306000Y-78068000D03*
%TD*%
D14*
%TO.C,D14*%
X75311000Y-88355000D03*
D15*
X75311000Y-80555000D03*
%TD*%
D14*
%TO.C,D15*%
X94996000Y-88609000D03*
D15*
X94996000Y-80809000D03*
%TD*%
D14*
%TO.C,D16*%
X113919000Y-88736000D03*
D15*
X113919000Y-80936000D03*
%TD*%
D14*
%TO.C,D17*%
X132842000Y-88863000D03*
D15*
X132842000Y-81063000D03*
%TD*%
D14*
%TO.C,D18*%
X151511000Y-88990000D03*
D15*
X151511000Y-81190000D03*
%TD*%
%TO.C,D19*%
X170942000Y-81253500D03*
D14*
X170942000Y-89053500D03*
%TD*%
%TO.C,D20*%
X189992000Y-88990000D03*
D15*
X189992000Y-81190000D03*
%TD*%
D14*
%TO.C,D21*%
X208978500Y-88990000D03*
D15*
X208978500Y-81190000D03*
%TD*%
D14*
%TO.C,D22*%
X227901500Y-88672500D03*
D15*
X227901500Y-80872500D03*
%TD*%
D14*
%TO.C,D23*%
X254635000Y-89053500D03*
D15*
X254635000Y-81253500D03*
%TD*%
D14*
%TO.C,D24*%
X39878000Y-110834000D03*
D15*
X39878000Y-103034000D03*
%TD*%
%TO.C,D25*%
X63982600Y-100836900D03*
D14*
X63982600Y-108636900D03*
%TD*%
D15*
%TO.C,D26*%
X99314000Y-100875000D03*
D14*
X99314000Y-108675000D03*
%TD*%
D15*
%TO.C,D27*%
X118237000Y-100875000D03*
D14*
X118237000Y-108675000D03*
%TD*%
D15*
%TO.C,D28*%
X137287000Y-100875000D03*
D14*
X137287000Y-108675000D03*
%TD*%
D15*
%TO.C,D29*%
X156337000Y-100875000D03*
D14*
X156337000Y-108675000D03*
%TD*%
%TO.C,D30*%
X175387000Y-108675000D03*
D15*
X175387000Y-100875000D03*
%TD*%
%TO.C,D31*%
X194437000Y-100875000D03*
D14*
X194437000Y-108675000D03*
%TD*%
D15*
%TO.C,D32*%
X213614000Y-100875000D03*
D14*
X213614000Y-108675000D03*
%TD*%
D15*
%TO.C,D33*%
X232537000Y-99478000D03*
D14*
X232537000Y-107278000D03*
%TD*%
D15*
%TO.C,D34*%
X256540000Y-100240000D03*
D14*
X256540000Y-108040000D03*
%TD*%
D15*
%TO.C,D35*%
X53975000Y-133059000D03*
D14*
X53975000Y-125259000D03*
%TD*%
D15*
%TO.C,D36*%
X77851000Y-133059000D03*
D14*
X77851000Y-125259000D03*
%TD*%
D15*
%TO.C,D37*%
X85471000Y-133186000D03*
D14*
X85471000Y-125386000D03*
%TD*%
D15*
%TO.C,D38*%
X139827000Y-132868500D03*
D14*
X139827000Y-125068500D03*
%TD*%
D15*
%TO.C,D39*%
X178562000Y-134265500D03*
D14*
X178562000Y-126465500D03*
%TD*%
D15*
%TO.C,D40*%
X202057000Y-134392500D03*
D14*
X202057000Y-126592500D03*
%TD*%
D15*
%TO.C,D41*%
X223012000Y-134125800D03*
D14*
X223012000Y-126325800D03*
%TD*%
D15*
%TO.C,D42*%
X242189000Y-134392500D03*
D14*
X242189000Y-126592500D03*
%TD*%
D15*
%TO.C,D43*%
X261302500Y-134138500D03*
D14*
X261302500Y-126338500D03*
%TD*%
D16*
%TO.C,MX1*%
X48599960Y-69856480D03*
X38439960Y-69856480D03*
D17*
X43519960Y-69856480D03*
%TD*%
%TO.C,MX2*%
X62569960Y-69856480D03*
D16*
X57489960Y-69856480D03*
X67649960Y-69856480D03*
%TD*%
D17*
%TO.C,MX3*%
X81619960Y-69856480D03*
D16*
X76539960Y-69856480D03*
X86699960Y-69856480D03*
%TD*%
%TO.C,MX4*%
X105749960Y-69856480D03*
X95589960Y-69856480D03*
D17*
X100669960Y-69856480D03*
%TD*%
D16*
%TO.C,MX5*%
X124799960Y-69856480D03*
X114639960Y-69856480D03*
D17*
X119719960Y-69856480D03*
%TD*%
D16*
%TO.C,MX6*%
X143849960Y-69856480D03*
X133689960Y-69856480D03*
D17*
X138769960Y-69856480D03*
%TD*%
D16*
%TO.C,MX7*%
X162899960Y-69856480D03*
X152739960Y-69856480D03*
D17*
X157819960Y-69856480D03*
%TD*%
%TO.C,MX8*%
X176869960Y-69856480D03*
D16*
X171789960Y-69856480D03*
X181949960Y-69856480D03*
%TD*%
%TO.C,MX9*%
X200999960Y-69856480D03*
X190839960Y-69856480D03*
D17*
X195919960Y-69856480D03*
%TD*%
%TO.C,MX10*%
X214969960Y-69856480D03*
D16*
X209889960Y-69856480D03*
X220049960Y-69856480D03*
%TD*%
%TO.C,MX11*%
X239099960Y-69856480D03*
X228939960Y-69856480D03*
D17*
X234019960Y-69856480D03*
%TD*%
%TO.C,MX12*%
X253069960Y-69856480D03*
D16*
X247989960Y-69856480D03*
X258149960Y-69856480D03*
%TD*%
D17*
%TO.C,MX14*%
X67330520Y-88906480D03*
D16*
X62250520Y-88906480D03*
X72410520Y-88906480D03*
%TD*%
%TO.C,MX15*%
X91460520Y-88906480D03*
X81300520Y-88906480D03*
D17*
X86380520Y-88906480D03*
%TD*%
%TO.C,MX16*%
X105430520Y-88906480D03*
D16*
X100350520Y-88906480D03*
X110510520Y-88906480D03*
%TD*%
%TO.C,MX17*%
X129560520Y-88906480D03*
X119400520Y-88906480D03*
D17*
X124480520Y-88906480D03*
%TD*%
D16*
%TO.C,MX18*%
X148610520Y-88906480D03*
X138450520Y-88906480D03*
D17*
X143530520Y-88906480D03*
%TD*%
D16*
%TO.C,MX19*%
X167660520Y-88906480D03*
X157500520Y-88906480D03*
D17*
X162580520Y-88906480D03*
%TD*%
D16*
%TO.C,MX20*%
X186710520Y-88906480D03*
X176550520Y-88906480D03*
D17*
X181630520Y-88906480D03*
%TD*%
D16*
%TO.C,MX21*%
X205760520Y-88906480D03*
X195600520Y-88906480D03*
D17*
X200680520Y-88906480D03*
%TD*%
%TO.C,MX22*%
X219730520Y-88906480D03*
D16*
X214650520Y-88906480D03*
X224810520Y-88906480D03*
%TD*%
D17*
%TO.C,MX23*%
X245924960Y-88902200D03*
D16*
X240844960Y-88902200D03*
X251004960Y-88902200D03*
%TD*%
D17*
%TO.C,MX24*%
X48280320Y-107955080D03*
D16*
X43200320Y-107955080D03*
X53360320Y-107955080D03*
%TD*%
D17*
%TO.C,MX25*%
X72087920Y-107955680D03*
D16*
X67007920Y-107955680D03*
X77167920Y-107955680D03*
%TD*%
D17*
%TO.C,MX26*%
X91137920Y-107955680D03*
D16*
X86057920Y-107955680D03*
X96217920Y-107955680D03*
%TD*%
%TO.C,MX27*%
X115267920Y-107955680D03*
X105107920Y-107955680D03*
D17*
X110187920Y-107955680D03*
%TD*%
%TO.C,MX28*%
X129237920Y-107955680D03*
D16*
X124157920Y-107955680D03*
X134317920Y-107955680D03*
%TD*%
D17*
%TO.C,MX29*%
X148287920Y-107955680D03*
D16*
X143207920Y-107955680D03*
X153367920Y-107955680D03*
%TD*%
D17*
%TO.C,MX30*%
X167337920Y-107955680D03*
D16*
X162257920Y-107955680D03*
X172417920Y-107955680D03*
%TD*%
D17*
%TO.C,MX31*%
X186387920Y-107955680D03*
D16*
X181307920Y-107955680D03*
X191467920Y-107955680D03*
%TD*%
%TO.C,MX32*%
X210517920Y-107955680D03*
X200357920Y-107955680D03*
D17*
X205437920Y-107955680D03*
%TD*%
D16*
%TO.C,MX33*%
X229567920Y-107955680D03*
X219407920Y-107955680D03*
D17*
X224487920Y-107955680D03*
%TD*%
%TO.C,MX35*%
X45900340Y-127002540D03*
D16*
X40820340Y-127002540D03*
X50980340Y-127002540D03*
%TD*%
%TO.C,MX36*%
X74792240Y-127002540D03*
X64632240Y-127002540D03*
D17*
X69712240Y-127002540D03*
%TD*%
D16*
%TO.C,MX37*%
X98602800Y-127002540D03*
X88442800Y-127002540D03*
D17*
X93522800Y-127002540D03*
%TD*%
%TO.C,MX38*%
X131607560Y-126994920D03*
D16*
X136687560Y-126994920D03*
X126527560Y-126994920D03*
D18*
X143545560Y-133979920D03*
X119669560Y-133979920D03*
D17*
X143545560Y-118739920D03*
X119669560Y-118739920D03*
%TD*%
%TO.C,MX39*%
X169722200Y-127002540D03*
D16*
X164642200Y-127002540D03*
X174802200Y-127002540D03*
%TD*%
%TO.C,MX40*%
X198615300Y-127002540D03*
X188455300Y-127002540D03*
D17*
X193535300Y-127002540D03*
%TD*%
%TO.C,MX41*%
X214967220Y-127002540D03*
D16*
X209887220Y-127002540D03*
X220047220Y-127002540D03*
%TD*%
D17*
%TO.C,MX42*%
X234017220Y-127002540D03*
D16*
X228937220Y-127002540D03*
X239097220Y-127002540D03*
%TD*%
D17*
%TO.C,MX43*%
X253067220Y-127002540D03*
D16*
X247987220Y-127002540D03*
X258147220Y-127002540D03*
%TD*%
D14*
%TO.C,NPNR1*%
X156514800Y-125972400D03*
X156514800Y-118172400D03*
%TD*%
%TO.C,R1*%
X238506000Y-81444000D03*
X238506000Y-89244000D03*
%TD*%
%TO.C,R2*%
X100711000Y-134608400D03*
X100711000Y-126808400D03*
%TD*%
%TO.C,R3*%
X54330600Y-71337000D03*
X54330600Y-63537000D03*
%TD*%
%TO.C,R4*%
X73533000Y-73115000D03*
X73533000Y-65315000D03*
%TD*%
%TO.C,R5*%
X82894000Y-78232000D03*
X75094000Y-78232000D03*
%TD*%
%TO.C,R6*%
X111633000Y-73115000D03*
X111633000Y-65315000D03*
%TD*%
%TO.C,R7*%
X123407000Y-78105000D03*
X115607000Y-78105000D03*
%TD*%
%TO.C,R8*%
X143346000Y-78105000D03*
X135546000Y-78105000D03*
%TD*%
%TO.C,R9*%
X149733000Y-73115000D03*
X149733000Y-65315000D03*
%TD*%
%TO.C,R10*%
X180938000Y-78232000D03*
X173138000Y-78232000D03*
%TD*%
%TO.C,R11*%
X187833000Y-73115000D03*
X187833000Y-65315000D03*
%TD*%
%TO.C,R12*%
X218784000Y-78105000D03*
X210984000Y-78105000D03*
%TD*%
%TO.C,R13*%
X225933000Y-73115000D03*
X225933000Y-65315000D03*
%TD*%
%TO.C,R14*%
X257392000Y-78105000D03*
X249592000Y-78105000D03*
%TD*%
%TO.C,R15*%
X57023000Y-90641000D03*
X57023000Y-82841000D03*
%TD*%
%TO.C,R16*%
X78232000Y-84644400D03*
X78232000Y-92444400D03*
%TD*%
%TO.C,R17*%
X97434400Y-92342800D03*
X97434400Y-84542800D03*
%TD*%
%TO.C,R18*%
X116433600Y-84542800D03*
X116433600Y-92342800D03*
%TD*%
%TO.C,R19*%
X135534400Y-84492000D03*
X135534400Y-92292000D03*
%TD*%
%TO.C,R20*%
X154482800Y-92292000D03*
X154482800Y-84492000D03*
%TD*%
%TO.C,R21*%
X173545500Y-84492000D03*
X173545500Y-92292000D03*
%TD*%
%TO.C,R22*%
X192608200Y-94120800D03*
X192608200Y-86320800D03*
%TD*%
%TO.C,R23*%
X201639000Y-80899000D03*
X193839000Y-80899000D03*
%TD*%
%TO.C,R24*%
X211582000Y-92292000D03*
X211582000Y-84492000D03*
%TD*%
%TO.C,R25*%
X258191000Y-92038000D03*
X258191000Y-84238000D03*
%TD*%
%TO.C,R26*%
X36449000Y-111723000D03*
X36449000Y-103923000D03*
%TD*%
%TO.C,R27*%
X66712000Y-97282000D03*
X74512000Y-97282000D03*
%TD*%
%TO.C,R28*%
X95467000Y-97129600D03*
X87667000Y-97129600D03*
%TD*%
%TO.C,R29*%
X120523000Y-109818000D03*
X120523000Y-102018000D03*
%TD*%
%TO.C,R30*%
X140208000Y-102018000D03*
X140208000Y-109818000D03*
%TD*%
%TO.C,R31*%
X159258000Y-102018000D03*
X159258000Y-109818000D03*
%TD*%
%TO.C,R32*%
X177995580Y-109787520D03*
X177995580Y-101987520D03*
%TD*%
%TO.C,R33*%
X197231000Y-102018000D03*
X197231000Y-109818000D03*
%TD*%
%TO.C,R34*%
X216281000Y-109818000D03*
X216281000Y-102018000D03*
%TD*%
%TO.C,R35*%
X235204000Y-106336000D03*
X235204000Y-114136000D03*
%TD*%
%TO.C,R36*%
X259842000Y-107913000D03*
X259842000Y-100113000D03*
%TD*%
%TO.C,R37*%
X37719000Y-118481000D03*
X37719000Y-126281000D03*
%TD*%
%TO.C,R38*%
X73496000Y-118491000D03*
X65696000Y-118491000D03*
%TD*%
%TO.C,R39*%
X88937000Y-118364000D03*
X96737000Y-118364000D03*
%TD*%
%TO.C,R40*%
X138963400Y-122035400D03*
X138963400Y-114235400D03*
%TD*%
%TO.C,R41*%
X165137000Y-118300500D03*
X172937000Y-118300500D03*
%TD*%
%TO.C,R42*%
X189076500Y-118491000D03*
X196876500Y-118491000D03*
%TD*%
%TO.C,R43*%
X218657000Y-118681500D03*
X210857000Y-118681500D03*
%TD*%
%TO.C,R44*%
X229589500Y-118681500D03*
X237389500Y-118681500D03*
%TD*%
%TO.C,R45*%
X257468200Y-117271800D03*
X249668200Y-117271800D03*
%TD*%
%TO.C,RGBR1*%
X81788000Y-133948000D03*
X81788000Y-126148000D03*
%TD*%
D17*
%TO.C,MX34*%
X248305320Y-107952540D03*
D16*
X243225320Y-107952540D03*
X253385320Y-107952540D03*
%TD*%
D17*
%TO.C,MX13*%
X45899960Y-88906480D03*
D16*
X50979960Y-88906480D03*
%TD*%
D19*
%TO.C,USB1*%
X33016500Y-87183500D03*
X33016500Y-95823500D03*
D20*
X37196500Y-87183500D03*
X37196500Y-95823500D03*
D21*
X36666500Y-94393500D03*
X36666500Y-88613500D03*
%TD*%
D12*
%TO.C,J1*%
X69443600Y-79933800D03*
X66903600Y-79933800D03*
X64363600Y-79933800D03*
D13*
X61823600Y-79933800D03*
%TD*%
D11*
%TO.C,P?*%
X62103000Y-62484000D03*
%TD*%
M02*
